<?xml version="1.0" encoding="UTF-8"?>
<!-- Created with Inkscape (http://www.inkscape.org/) -->
<svg width="210mm" height="297mm" version="1.1" viewBox="0 0 210 297" xml:space="preserve" xmlns="http://www.w3.org/2000/svg"><g transform="translate(-1.399 -.81483)"><path d="m68.942 259.8v-12.263h-8.0476v-4.9818h21.843v4.9818h-8.0476v24.526h-5.7483zm17.628-2.4909v-14.754h5.7483v29.508h-5.7483zm11.113 0v-14.754h6.4076l3.9201 6.9937c2.156 3.8465 4.0401 7.1206 4.1868 7.2756s2.1634-2.949 4.4815-6.8979l4.2148-7.1798 6.2969-0.22261v29.539h-5.7483v-19.716l-4.5028 7.742c-2.4765 4.2581-4.589 7.7399-4.6944 7.7374-0.10544-3e-3 -2.0885-3.4405-4.407-7.64l-4.2154-7.6355-0.10226 9.7562-0.10225 9.7562h-5.7353zm34.873 0v-14.754h19.544v4.9818h-13.796v6.8979h13.796v4.5986h-13.796v8.0476h13.796v4.9818h-19.544zm13.522-29.468c-4.153-1.3524-8.2272-5.1012-9.728-8.9511-1.1125-2.8537-1.228-7.8311-0.24689-10.633 2.0462-5.8435 8.2687-10.155 14.656-10.155 6.3868 0 12.609 4.3118 14.655 10.155 0.98345 2.8085 0.86567 7.7789-0.25232 10.648-1.2016 3.0831-4.3717 6.4245-7.6058 8.0166-2.2327 1.0992-2.9419 1.2531-6.1923 1.3436-2.3392 0.0652-4.2566-0.0885-5.2857-0.4236zm9.013-5.8229c6.0378-3.0087 7.2466-11.02 2.3775-15.755-2.0103-1.9551-3.6832-2.6045-6.7098-2.6045-4.2235 0-7.0463 1.8271-8.8686 5.7402-2.9537 6.343 1.7823 13.612 8.8686 13.612 1.75 0 2.8429-0.2504 4.3324-0.99262zm-108.38-8.7512v-14.782h6.6258c7.4962 0 10.059 0.46444 13.009 2.3576 5.8414 3.7485 8.0578 12.264 4.931 18.946-1.5099 3.2265-3.4818 5.2815-6.4901 6.7637l-2.5354 1.2492-7.7703 0.12412-7.7703 0.12399zm15.895 8.4026c1.2809-0.79879 2.2068-1.7929 3.0338-3.2574 1.0746-1.9028 1.1899-2.4244 1.1857-5.365-0.0058-3.8262-0.7597-5.6331-3.2366-7.7533-2.0006-1.7124-3.7624-2.2104-7.8207-2.2104h-3.3087v19.995l4.1515-0.12977c3.8335-0.11979 4.2927-0.21777 5.995-1.2794zm14.379-8.4308v-14.754h19.544v4.9818h-13.796v6.8979h13.796v4.5986h-13.796v8.0476h13.796v4.9818h-19.544zm24.143 0v-14.754h6.4076l3.9201 6.9937c2.156 3.8465 4.0401 7.1206 4.1868 7.2756 0.14669 0.15505 2.1634-2.949 4.4815-6.8979l4.2148-7.1798 6.2969-0.22247v29.539h-5.7483v-19.716l-4.5028 7.742c-2.4765 4.2581-4.589 7.7399-4.6944 7.7374-0.10544-3e-3 -2.0885-3.4405-4.407-7.64l-4.2154-7.6354-0.10225 9.7562-0.10226 9.7562h-5.7353zm13.901-25.473c-1.296-0.30792-3.1711-1.3815-3.1711-1.8156 0-0.13962 0.3534-0.63007 0.78535-1.0899 0.78011-0.83039 0.79474-0.8312 2.1887-0.1205 1.7255 0.87968 2.9085 0.90959 3.724 0.0941 1.0733-1.0733 0.49106-1.8216-2.5602-3.2902-3.9018-1.878-4.9502-3.753-3.58-6.4026 1.1117-2.1498 4.9337-2.9902 7.6682-1.6862 1.5652 0.74641 1.573 0.77192 0.61485 2.0186-0.64504 0.83932-0.83066 0.89061-1.734 0.47902-2.0926-0.95345-4.0413-0.38909-4.0413 1.1704 0 0.51103 0.78308 1.0698 2.7783 1.9823 3.2799 1.5001 4.1152 2.3247 4.3838 4.3271 0.16381 1.2214 0.0174 1.7017-0.82355 2.7011-1.4378 1.7088-3.5658 2.266-6.2332 1.6323zm-24.248-7.2923v-7.2811h2.6825v14.562h-2.6825zm8.814 1.1496v-6.1315h-2.1077c-2.0864 0-2.1077-0.0116-2.1077-1.1496v-1.1496h11.497v1.1496c0 1.138-0.0213 1.1496-2.1077 1.1496h-2.1077v12.263h-3.0657zm8.0434-5.0776c-3e-3 -0.685-0.11109-1.8921-0.24175-2.6825l-0.23753-1.4371h2.8831l-0.23754 1.4371c-0.13064 0.79038-0.23943 1.9975-0.24175 2.6825-3e-3 1.0719-0.13774 1.2455-0.96226 1.2455-0.82453 0-0.95862-0.17357-0.96226-1.2455zm-48.922-15.186c-8.9117-3.3032-12.84-12.705-8.7622-20.973 1.6303-3.306 3.9163-5.5177 7.4177-7.1765 2.3681-1.1219 2.8609-1.2127 6.5835-1.2127 3.7201 0 4.2118 0.0904 6.5147 1.1978 1.37 0.65881 3.2368 1.8474 4.1484 2.6413l1.6575 1.4434-4.0523 4.1032-1.3559-1.3188c-5.0496-4.9115-13.131-3.2843-16.08 3.2379-1.6595 3.6703-0.55727 8.0393 2.7661 10.965 2.0211 1.779 3.9034 2.4515 6.8287 2.4396 2.5403-0.0101 4.6506-0.94069 6.603-2.911l1.474-1.4876 3.8616 4.1896-1.7894 1.62c-3.0313 2.7444-5.5331 3.7081-10.002 3.8529-3.0547 0.0989-4.2342-0.0249-5.8138-0.61038zm18.39-0.71711c0.28844-0.57963 3.4331-7.2189 6.9881-14.754l6.4637-13.7h4.3079l6.8322 14.466c3.7577 7.9566 6.9012 14.596 6.9856 14.754 0.0843 0.15807-1.2476 0.28741-2.96 0.28741h-3.1133l-1.3279-2.8741-1.3279-2.8741h-14.371l-1.4222 2.8741-1.4222 2.8741h-6.1574zm18.147-14.828c-1.3007-2.8333-2.4812-5.032-2.6233-4.886-0.14209 0.14598-1.2949 2.4641-2.5617 5.1514l-2.3033 4.886h9.8532zm16.604 1.1276v-14.754h5.7483v24.143h14.179v5.365h-19.927zm23.376 0v-14.754h6.4076l3.9201 6.9937c2.156 3.8465 4.0401 7.1206 4.1868 7.2756 0.14669 0.15507 2.1634-2.949 4.4815-6.8979l4.2148-7.1798 6.2969-0.22276v29.539h-5.7483v-19.716l-4.5028 7.742c-2.4766 4.2581-4.589 7.7399-4.6944 7.7374-0.10544-3e-3 -2.0885-3.4405-4.407-7.64l-4.2154-7.6355-0.10226 9.7562-0.10225 9.7562h-5.7353zm-76.644-44.07v-14.754h5.7302l0.10486 6.5371 0.10486 6.5371 11.88-13.065 6.8659-8e-3 -1.5587 1.6287c-4.0604 4.2427-11.63 12.633-11.63 12.892 0 0.15919 3.0256 3.5965 6.7236 7.6384l6.7236 7.349-7.5072-0.0412-11.497-12.769-0.10501 6.405-0.10501 6.405h-5.7297v-14.755zm27.208 0v-14.754h19.544v4.9818h-13.796v6.8979h13.796v4.5986h-13.796v8.0476h13.796v4.9818h-19.544zm23.76 0v-14.754h19.544v4.9818h-13.796v6.8979h13.796v4.5986h-13.796v8.0476h13.796v4.9818h-19.544zm24.143-0.0387v-14.793l6.4189 0.14993c5.7161 0.13355 6.641 0.24859 8.4475 1.051 6.476 2.8767 7.7539 11.411 2.429 16.221-1.9428 1.7552-4.6813 2.5822-8.5509 2.5822h-2.9962v9.5805h-5.7483zm12.17 0.0326c1.4482-0.85546 2.7755-3.1406 2.7755-4.7784 0-3.3284-2.357-5.3676-6.5512-5.6677l-2.6461-0.18932v11.702l2.6257-0.18787c1.5351-0.10978 3.1118-0.47501 3.796-0.87921z" stroke-width=".38322"/><path d="m82.135 50.831v-24.264h48.527v48.527h-48.527zm9.1948 6.6624c0.48816-0.20397 0.70288-0.54985 0.69884-1.1257-5e-3 -0.7589-0.46661-1.1735-1.3055-1.1735-0.42605 0-0.56976 0.05316-0.81984 0.30324-0.59805 0.59805-0.51044 1.4212 0.20232 1.901 0.41645 0.28034 0.72363 0.30418 1.2242 0.09503zm4.7462-4.9236v-4.8591l6.1256 9.665 2.3879 0.06016v-12.671h-2.1367l0.0307 4.7832 0.0307 4.7832-0.34254-0.55304c-0.1884-0.30418-1.531-2.4446-2.9835-4.7566l-2.641-4.2036-2.4933-0.05994v12.671h2.022zm18.091 3.9013v-0.95777h-4.8953v-3.6183h4.2568v-1.8091h-4.2568v-3.5118h4.576v-1.8091h-6.7044v12.664h7.0237zm6.2787-4.4696v-5.4274h3.5118v-1.8091h-9.152v1.8091h3.5118v10.855h2.1284z" stroke-width=".10642"/></g></svg>
